<svg xmlns="http://www.w3.org/2000/svg" width="583.167" height="72.023"><g data-name="Group 562"><g data-name="Group 560" fill="#fff"><path data-name="Path 148" d="M18.949 56.594c-7.293 0-12.482-5.51-14.512-5.51-1.052 0-2.708 2.047-3.834 4.566h-.6V37.939h.753c4.358 11.965 11.951 17.712 18.267 17.712 7.971 0 11.279-6.534 11.279-11.728 0-8.343-6.993-10.232-13.835-12.279-7.143-2.205-15.038-4.724-15.038-16.14C1.429 7.553 7.068.391 15.714.391c5.79 0 9.625 4.251 11.43 4.251.977 0 2.1-1.574 3.007-3.542h.527v16.06h-.752C27.293 8.973 22.784 1.339 15.865 1.339c-8.2 0-10.451 6.455-10.451 10.783 0 8.343 6.467 10.39 13.008 12.515 7.444 2.283 15.789 4.644 15.789 16.451 0 7.321-5.263 15.506-15.262 15.506z"/><path data-name="Path 149" d="M50.6 56.59c-2.781 0-8.5-1.889-8.5-8.342V23.929h-5.711v-1.1h5.715V9.683h5.26v13.144h9.1v1.1h-9.1v23.93c0 5.117 2.1 6.534 5.112 6.534 3.91 0 5.866-2.283 5.866-7.713h.826c-.071 6.212-2.628 9.912-8.568 9.912z"/><path data-name="Path 150" d="M60.553 22.827l10.978-.314v8.579c2.33-6.14 5.564-8.974 8.345-8.974 1.956 0 4.135 1.338 4.135 3.621a2.893 2.893 0 01-3.002 2.916c-1.277 0-3.908-2.283-4.284-2.283-2.557 0-5.264 5.194-5.264 7.792v17.944c0 1.811.452 2.755 5.114 2.755h1.052v.792H60.553v-.788h.6c4.511 0 5.038-.708 5.038-3.147V25.976c0-1.259-.752-2.125-5.639-2.361z"/><path data-name="Path 151" d="M94.079 56.517a7.8 7.8 0 01-7.971-8.108c0-8.187 6.843-9.6 18.647-11.572v-7.241c0-4.564-1.353-6.532-7.144-6.532-3.158 0-5.639 1.417-5.563 2.44.225 2.361 2.931 3.936 2.931 6.3a2.894 2.894 0 01-2.931 2.992c-2.406 0-3.835-2.362-3.835-5.038 0-3.464 2.708-7.636 10.6-7.636 7.669 0 11.2 3.7 11.2 9.76v16.054c0 3.621 1.278 4.645 2.706 4.645 2.406 0 3.459-1.339 3.685-7.243h.752c.151 7.557-2.256 10.864-6.24 10.864s-5.49-3.149-6.015-6.77c-1.424 2.598-4.132 7.085-10.822 7.085zm3.082-2.677c4.963 0 7.595-3.778 7.595-8.657v-7.557c-11.053 1.81-13.234 4.408-13.234 8.815 0 4.801 2.48 7.399 5.639 7.399z"/><path data-name="Path 152" d="M130.278 56.59c-2.782 0-8.5-1.889-8.5-8.342V23.929h-5.711v-1.1h5.713V9.683h5.264v13.144h9.1v1.1h-9.1v23.93c0 5.117 2.1 6.534 5.112 6.534 3.91 0 5.864-2.283 5.864-7.713h.828c-.075 6.212-2.63 9.912-8.57 9.912z"/><path data-name="Path 153" d="M145.995 36.209c-.076.866-.076 1.572-.076 3.07 0 12.751 5.114 15.427 9.7 15.427 4.736 0 7.82-2.2 10.526-6.77l.6.394c-2.332 4.723-5.94 8.187-12.182 8.187-8.57 0-14.661-6.847-14.661-17 0-10.234 6.917-17.4 14.06-17.4 8.648 0 12.18 6.376 12.934 14.09zm.075-1.024h14.587c-.6-7.162-2.1-12.121-6.767-12.121-4.512 0-7.069 3.306-7.825 12.121z"/><path data-name="Path 154" d="M189.645 24.166c1.954-3.228 4.437-5.275 6.992-5.275 2.708 0 4.437 2.677 4.437 4.724a2.56 2.56 0 01-2.481 2.755c-2.782 0-3.61-5.2-4.286-5.2-1.2 0-2.933 1.575-3.986 3.464a11.677 11.677 0 014.362 8.974c0 6.3-4.963 10.783-11.354 10.783h-4.286c-3.91 0-6.015 1.259-6.015 3.307a2.69 2.69 0 002.857 2.674h14.06a9.59 9.59 0 019.474 9.6c0 8.974-9.925 12.043-17.293 12.043-9.249 0-13.985-2.519-13.76-8.658.151-3.936 3.759-7.085 8.646-7.951-2.33-.551-6.467-2.2-6.467-5.589 0-4.642 3.835-6.217 8.948-6.217a9.972 9.972 0 01-7.519-10 11.728 11.728 0 0111.354-11.492 11.236 11.236 0 016.317 2.058zm-6.391 46.676c9.322 0 13.308-4.013 13.308-8.658 0-4.251-3.007-6.376-8.12-6.376h-9.55c-4.286 0-6.841 3.542-6.841 7.477 0 5.117 4.059 7.557 11.204 7.557zm.075-27.234c3.759 0 6.089-1.968 6.089-10s-2.33-10.706-6.089-10.706-6.091 2.677-6.091 10.706 2.332 10 6.091 10z"/><path data-name="Path 155" d="M203.005 55.651v-.788h.676c4.513 0 4.963-.708 4.963-3.147V25.975c0-1.259-.525-2.047-5.639-2.361v-.788l10.9-.393v29.675c0 2.047.527 2.755 5.039 2.755h1.126v.788zm7.82-40.932a3.765 3.765 0 01-3.609-3.855 3.622 3.622 0 117.217 0 3.766 3.766 0 01-3.611 3.855z"/><path data-name="Path 156" d="M235.47 56.517c-8.5 0-15.039-5.983-15.039-17.4 0-8.5 6.692-17 15.865-17 8.646 0 11.278 4.723 11.278 8.5 0 2.6-1.5 4.8-3.759 4.8s-3.383-1.1-3.383-2.832c0-2.756 2.406-4.724 2.406-6.3s-3.233-3.227-6.541-3.227c-5.49 0-9.774 3.306-9.774 16.215 0 12.514 5.263 15.663 9.849 15.663 5.114 0 8.646-3.149 10.978-7.24l.6.393c-2.256 4.413-5.639 8.428-12.48 8.428z"/><path data-name="Path 157" d="M276.752 51.164c0 2.912 1.053 3.621 6.917 3.621h1.278v.87h-22.782v-.87h.977c6.392 0 7.068-.709 7.068-3.543V5.826c0-2.834-1.128-3.543-7.068-3.543h-.977v-.866h22.782v.866h-1.278c-5.94 0-6.917.709-6.917 3.621z"/><path data-name="Path 158" d="M286.153 55.655v-.788h.6c4.211 0 5.038-.708 5.038-3.147V25.976c0-1.259-.752-2.125-5.639-2.361v-.788l10.978-.314v6.612c1.58-3.07 4.36-7.006 10.226-7.006 5.412 0 9.923 3.778 9.923 9.209v20.78c0 1.811.679 2.755 3.837 2.755h1.953v.792h-16.54v-.788h.6c4.435 0 4.886-.708 4.886-3.147V30.855c0-5.038-1.954-6.613-5.713-6.613-6.091 0-9.247 5.2-9.247 7.872v19.994c0 2.441.525 2.755 4.059 2.755h1.429v.792z"/><path data-name="Path 159" d="M335.292 56.59c-2.781 0-8.5-1.889-8.5-8.342V23.929h-5.711v-1.1h5.713V9.683h5.264v13.144h9.1v1.1h-9.1v23.93c0 5.117 2.1 6.534 5.112 6.534 3.91 0 5.866-2.283 5.866-7.713h.826c-.073 6.212-2.63 9.912-8.57 9.912z"/><path data-name="Path 160" d="M352.481 36.209c-.075.866-.075 1.572-.075 3.07 0 12.751 5.112 15.427 9.7 15.427 4.736 0 7.82-2.2 10.526-6.77l.6.394c-2.332 4.723-5.94 8.187-12.182 8.187-8.572 0-14.663-6.847-14.663-17 0-10.234 6.919-17.4 14.061-17.4 8.646 0 12.18 6.376 12.932 14.09zm.076-1.024h14.587c-.6-7.162-2.1-12.121-6.768-12.121-4.511 0-7.066 3.306-7.818 12.121z"/><path data-name="Path 161" d="M373.681 55.651v-.788h.6c4.362 0 5.038-.708 5.038-3.147V4.645c0-2.755-1.2-3.149-6.015-3.07V.788L384.582 0v51.793c0 2.205.752 3.07 3.835 3.07h2.33v.788z"/><path data-name="Path 162" d="M392.42 55.651v-.788h.6c4.362 0 5.038-.708 5.038-3.147V4.645c0-2.755-1.2-3.149-6.015-3.07V.788L403.322 0v51.793c0 2.205.75 3.07 3.835 3.07h2.33v.788z"/><path data-name="Path 163" d="M411.515 55.651v-.788h.676c4.511 0 4.962-.708 4.962-3.147V25.975c0-1.259-.525-2.047-5.637-2.361v-.788l10.9-.393v29.675c0 2.047.527 2.755 5.038 2.755h1.128v.788zm7.818-40.932a3.766 3.766 0 01-3.609-3.855 3.623 3.623 0 117.219 0 3.767 3.767 0 01-3.612 3.855z"/><path data-name="Path 164" d="M449.912 24.166c1.954-3.228 4.437-5.275 6.992-5.275 2.708 0 4.437 2.677 4.437 4.724a2.56 2.56 0 01-2.481 2.755c-2.782 0-3.609-5.2-4.286-5.2-1.2 0-2.933 1.575-3.986 3.464a11.672 11.672 0 014.362 8.974c0 6.3-4.962 10.783-11.354 10.783h-4.286c-3.91 0-6.015 1.259-6.015 3.307a2.69 2.69 0 002.857 2.674h14.062a9.59 9.59 0 019.473 9.6c0 8.974-9.925 12.043-17.294 12.043-9.247 0-13.985-2.519-13.759-8.658.151-3.936 3.759-7.085 8.648-7.951-2.332-.551-6.468-2.2-6.468-5.589 0-4.642 3.837-6.217 8.948-6.217a9.97 9.97 0 01-7.517-10 11.727 11.727 0 0111.352-11.492 11.232 11.232 0 016.315 2.058zm-6.391 46.676c9.324 0 13.308-4.013 13.308-8.658 0-4.251-3.007-6.376-8.121-6.376h-9.547c-4.286 0-6.843 3.542-6.843 7.477 0 5.117 4.059 7.557 11.204 7.557zm.075-27.234c3.759 0 6.091-1.968 6.091-10s-2.332-10.706-6.091-10.706-6.089 2.677-6.089 10.706 2.33 10 6.089 10z"/><path data-name="Path 165" d="M467.141 36.209c-.075.866-.075 1.572-.075 3.07 0 12.751 5.112 15.427 9.7 15.427 4.736 0 7.818-2.2 10.526-6.77l.6.394c-2.332 4.723-5.94 8.187-12.18 8.187-8.572 0-14.663-6.847-14.663-17 0-10.234 6.917-17.4 14.06-17.4 8.648 0 12.182 6.376 12.934 14.09zm.075-1.024h14.588c-.6-7.162-2.106-12.121-6.768-12.121-4.512 0-7.069 3.306-7.821 12.121z"/><path data-name="Path 166" d="M488.701 55.655v-.788h.6c4.211 0 5.038-.708 5.038-3.147V25.976c0-1.259-.752-2.125-5.639-2.361v-.788l10.976-.314v6.612c1.58-3.07 4.362-7.006 10.226-7.006 5.414 0 9.925 3.778 9.925 9.209v20.78c0 1.811.677 2.755 3.835 2.755h1.954v.792h-16.539v-.788h.6c4.437 0 4.887-.708 4.887-3.147V30.855c0-5.038-1.956-6.613-5.713-6.613-6.091 0-9.249 5.2-9.249 7.872v19.994c0 2.441.527 2.755 4.061 2.755h1.429v.792z"/><path data-name="Path 167" d="M540.923 56.517c-8.5 0-15.039-5.983-15.039-17.4 0-8.5 6.692-17 15.865-17 8.646 0 11.278 4.723 11.278 8.5 0 2.6-1.5 4.8-3.759 4.8s-3.383-1.1-3.383-2.832c0-2.756 2.406-4.724 2.406-6.3s-3.234-3.227-6.541-3.227c-5.488 0-9.774 3.306-9.774 16.215 0 12.514 5.263 15.663 9.85 15.663 5.112 0 8.646-3.149 10.976-7.24l.6.393c-2.255 4.413-5.638 8.428-12.479 8.428z"/><path data-name="Path 168" d="M562.266 36.209c-.076.866-.076 1.572-.076 3.07 0 12.751 5.112 15.427 9.7 15.427 4.736 0 7.818-2.2 10.526-6.77l.6.394c-2.33 4.723-5.94 8.187-12.18 8.187-8.57 0-14.661-6.847-14.661-17 0-10.234 6.916-17.4 14.058-17.4 8.649 0 12.182 6.376 12.934 14.09zm.073-1.024h14.589c-.6-7.162-2.106-12.121-6.767-12.121-4.512 0-7.07 3.306-7.822 12.121z"/></g><path data-name="Line 103" fill="none" stroke="#ac9156" stroke-miterlimit="10" stroke-width="1.268" d="M.001 66.964h163.758"/><path data-name="Line 104" fill="none" stroke="#ac9156" stroke-miterlimit="10" stroke-width="1.268" d="M460.985 66.964h122.182"/><path data-name="Line 105" fill="none" stroke="#ac9156" stroke-miterlimit="10" stroke-width="1.268" d="M201.748 66.964h223.11"/></g></svg>