<svg version="1.1" id="Layer_1" xmlns="http://www.w3.org/2000/svg" x="0" y="0" viewBox="0 0 186.2 199.7" xml:space="preserve"><style>.st0{fill:#fff}.st3{fill:none;stroke-miterlimit:10;stroke:#fff}.st4{fill:#1a1a1a}.st6{fill:none;stroke:#000;stroke-miterlimit:10}</style><circle class="st0" cx="19.1" cy="58.4" r="17.5"/><path d="M21.7 49.8l8.6 8.6-8.6 8.6m8.6-8.6H8" fill="none" stroke="#001489" stroke-miterlimit="10"/><circle cx="19.1" cy="18.7" r="17.5" fill="#001489"/><path class="st3" d="M21.7 10.1l8.6 8.6-8.6 8.6m8.6-8.6H8"/><path id="XMLID_3_" d="M3.1 179.2c-.4-1.8-.5-2.1-1-2.2l-.4-.1v-.4H7v.4l-.4.1c-1 .2-.9 1.2-.6 2.5l2.4 11.7 1.7-9.3-.6-3.2c-.2-1.1-.3-1.5-.9-1.6l-.4-.1v-.4h5.5v.4l-.7.1c-1 .2-.8 1.3-.6 2.4l2.3 11.7 2.2-11.1c.4-2.3.2-2.9-.7-3.1l-.6-.1v-.4h3.8v.4l-.4.1c-.6.2-.7.8-1.2 2.8L14 197.2h-.8l-2.8-13.6-2.5 13.6h-1l-3.8-18z"/><path id="XMLID_2_" d="M24.1 197.2c-1.7 0-2.3-1.2-2.9-1.2-.3 0-.7.1-1 1.1h-.4v-6.8h.4c.4 3.9 1.8 6.3 3.8 6.3 1.3 0 2.3-1.2 2.3-3.4 0-4.7-6.7-6.7-6.7-11.8 0-2.8 1.4-4.9 3.9-4.9 1.6 0 2 1.1 2.7 1.1.4 0 .7-.3.8-1h.4v6.8H27c-.4-3.4-1.3-6.3-3.4-6.3-1.5 0-1.8 1.5-1.8 2.5 0 4.5 6.7 6 6.7 12.2 0 3.1-1.8 5.4-4.4 5.4"/><path id="XMLID_1_" d="M36.6 192.3c0 3.2-1.6 4.9-4.1 4.9-2.2 0-3.6-1.8-3.5-3.8 0-1.6 1.2-2.3 2.1-2.2.7.1 1.3.6 1.2 1.6-.1 1.5-1.7 1.4-1.8 2.4-.1.6.7 1.4 1.6 1.4 1.7 0 1.7-2.1 1.7-3.7v-14.5c0-.8-.3-1.1-.9-1.2l-.7-.2v-.4H38v.4l-.7.2c-.6.1-.8.4-.8 1.3v13.8z"/><path d="M46.2 176.3v20.9m14.5-2.4c3.2 0 4.9-1.7 5.7-4.6l-.5-.1c-.7 2.3-1.8 4.1-4.9 4.1-4.2 0-5.1-3.9-5.1-7.4 0-5.3 2.2-7.5 4.6-7.5 3 0 4.5 2.1 5.2 5.1h.4V179h-.3c-.4.6-.8 1.1-1.2 1.1-.6 0-1.6-1.3-4.1-1.3-3.2 0-7 3.4-7 8-.1 4.6 3.2 8 7.2 8m12.3-7.7h1.7c1.7 0 2 .4 2.4 3.3h.3v-7.1H77c-.5 2.4-.7 3.3-2.4 3.3h-1.7v-6.2c0-.6.1-.8 1.3-.8h2.5c1.1 0 2.1.8 3.9 4.8l.3-.1-.8-5.2H68.4v.5h.3c2 0 2.3.2 2.3 1v12.2c0 1-.2 1.2-2.3 1.2h-.3v.5h12.4l.9-5.1h-.3c-1.4 2.9-3.2 4.5-3.8 4.6l-2.2.1c-1.7.1-2.2-.2-2.2-1v-6zm18.4 7.7c3.4 0 7.4-3.1 7.4-8s-4-8-7.4-8c-3.4 0-7.4 3.1-7.4 8s3.9 8 7.4 8m0-.5c-3.7 0-5-3.2-5-7.4 0-4.9 1.5-7.6 5-7.6 3.6 0 5 2.6 5 7.5 0 4.2-1.3 7.5-5 7.5m22.3.5c3.2 0 4.9-1.7 5.7-4.6l-.5-.1c-.7 2.3-1.8 4.1-4.9 4.1-4.2 0-5.1-3.9-5.1-7.4 0-5.3 2.2-7.5 4.6-7.5 3 0 4.5 2.1 5.2 5.1h.4V179h-.3c-.4.6-.8 1.1-1.2 1.1-.6 0-1.6-1.3-4.1-1.3-3.2 0-7 3.4-7 8-.1 4.6 3.2 8 7.2 8m13-9.8c-2.4 0-4.9 2.2-4.9 4.9s2.5 4.9 4.9 4.9c2.4 0 4.9-2.2 4.9-4.9.1-2.7-2.4-4.9-4.9-4.9m3 4.9c0 3.2-1.1 4.4-3 4.4s-3-1.2-3-4.4 1.1-4.4 3-4.4 3 1.2 3 4.4m8.3 4.9c1.9 0 2.9-1.3 3.4-2.2v2.1l3.5-.1v-.5c-1.8-.1-2-.2-2-.7v-8.3l-3.5.1v.5h.4c1.3 0 1.5.3 1.5.8v4.9c0 .9-1.3 2.9-3.1 2.9-1.1 0-1.7-.4-1.7-1.8v-7.3l-3.2.1v.5h.3c1.1 0 1.3.3 1.3.8v5.7c.1 1.4 1.6 2.5 3.1 2.5m8.8-.3h5v-.5h-.4c-1.2 0-1.3-.1-1.3-.8v-5c0-.8 1.3-2.7 3.1-2.7 1.1 0 1.7.4 1.7 1.9v5.7c0 .7-.1.9-1.6.9h-.2v.5h5.1v-.5h-.6c-.9 0-1.1-.3-1.1-.8v-5.7c0-1.5-1.4-2.6-3-2.6-1.9 0-2.9 1.3-3.4 2.1v-2l-3.3.1v.5c1.4.2 1.7.3 1.7.7v6.8c0 .7-.2.9-1.5.9h-.2v.5zm17.7.3c1.8 0 3.3-1.2 4-2.4l-.4-.2c-.7 1.1-1.9 2-3.3 2s-2.9-.7-2.9-4.3c0-3.7 1.3-4.4 2.9-4.4.8 0 2.1.2 2.1.7 0 .5-.8 1.1-.8 1.9 0 .5.4.9 1.1.9.7 0 1.2-.7 1.2-1.5 0-1.1-1-2.5-3.5-2.5-2.9 0-4.9 2.4-4.9 4.9-.2 3.2 1.9 4.9 4.5 4.9zm8.2-12.4c.6 0 1.1-.5 1.1-1.1 0-.6-.5-1.1-1.1-1.1-.6 0-1.1.5-1.1 1.1 0 .6.5 1.1 1.1 1.1m-2.5 12.1h5.4v-.5h-.6c-1.3 0-1.5-.2-1.5-.8V185l-3.4.1v.5c1.6.2 1.8.3 1.8.7v6.8c0 .7-.1.9-1.6.9h-.2v.5zm7.3 0h5.3v-.5h-.9c-.8 0-1.1-.3-1.1-.8v-14.6l-3.4.2v.5c1.4 0 1.8.2 1.8 1V193c0 .7-.2.9-1.5.9h-.2v.6zm-75-167.9h-1.3l-8.8-14.2h1.8l7.7 12.5 7.7-12.5h1.8l-8.9 14.2z"/><circle class="st4" cx="59.9" cy="18.7" r="17.5"/><path class="st3" d="M71 18.7H48.8m11.1 11.1V7.5"/><path class="st4" d="M59.9 41.9c9.1 0 16.5 7.4 16.5 16.5S69 74.9 59.9 74.9s-16.5-7.4-16.5-16.5 7.4-16.5 16.5-16.5m0-1c-9.7 0-17.5 7.8-17.5 17.5s7.8 17.5 17.5 17.5 17.5-7.8 17.5-17.5-7.9-17.5-17.5-17.5z"/><path fill="none" stroke="#1a1a1a" stroke-miterlimit="10" d="M71 58.4H48.8"/><circle class="st0" cx="60.4" cy="101" r="17.5"/><path class="st6" d="M63 92.2l8.9 8.8-8.9 8.9m8.9-8.9H49"/><circle class="st0" cx="19.7" cy="101" r="17.5"/><path class="st6" d="M17.1 109.9L8.2 101l8.9-8.8M8.2 101h22.9"/><circle cx="60.4" cy="142.6" r="17.5"/><path class="st3" d="M63 133.7l8.9 8.8-8.9 8.9m8.9-8.9H49"/><circle cx="19.7" cy="142.5" r="17.5"/><path class="st3" d="M17.1 151.4l-8.9-8.9 8.9-8.8m-8.9 8.8h22.9"/><circle class="st0" cx="101.8" cy="101" r="17.5"/><path class="st6" d="M109.7 108.9L94 93.2m0 15.7l15.7-15.7"/><circle cx="102.1" cy="142.2" r="17.5"/><path d="M109.9 150.1l-15.7-15.7m0 15.7l15.7-15.7" stroke="#fff" fill="none" stroke-miterlimit="10"/></svg>