<svg data-name="Component 57 – 1" xmlns="http://www.w3.org/2000/svg" width="292.228" height="64.579"><defs><clipPath id="a"><path data-name="Rectangle 9" fill="none" d="M0 0h292.228v25.518H0z"/></clipPath></defs><g data-name="Mask Group 2" clip-path="url(#a)"><path data-name="Path 1" d="M292.228 23.794a1.437 1.437 0 11-2.817 0 1.432 1.432 0 112.817 0"/><path data-name="Path 2" d="M42.644 25.333H30.162v-.942h.643c.826 0 1.315-.408 1.315-1.444V2.632c0-1.036-.489-1.442-1.315-1.442h-.673V.249h12.512v8.624h-.827v-.1c0-5.109-1.514-7.429-4.281-7.429h-2.054v10.412h.521c1.561 0 2.294-1.537 2.294-4.765v-.1h.826v10.852h-.826v-.061c0-3.166-.7-4.8-2.294-4.8h-.521v11.355h1.929c2.736 0 4.4-2.731 4.4-7.4v-.092h.827z"/><path data-name="Path 3" d="M29.336 25.333h-7.312v-.942h.614c.826 0 1.344-.408 1.344-1.444v-9.844h-5.353v9.845c0 1.039.518 1.444 1.347 1.444h.642v.941h-7.343v-.942h.643c.828 0 1.347-.408 1.347-1.444V2.632c0-1.036-.519-1.442-1.347-1.442h-.643V.249h7.343v.942h-.642c-.829 0-1.347.406-1.347 1.442v9.124h5.353V2.632c0-1.036-.518-1.442-1.344-1.442h-.614V.249h7.312v.942h-.643c-.826 0-1.345.406-1.345 1.442v20.315c0 1.039.519 1.444 1.345 1.444h.643z"/><path data-name="Path 4" d="M12.879 8.934h-.827V8.84c0-4.046-1.494-7.492-3.242-7.492h-.733v21.6c0 1.039.518 1.443 1.346 1.443h.765v.942H2.661v-.942h.7c.827 0 1.346-.408 1.346-1.443v-21.6h-.639C2.318 1.348.826 4.576.826 8.84v.094H0V.249h12.879z"/><path data-name="Path 5" d="M104.909 25.333H92.582v-.942h.856c.827 0 1.346-.377 1.346-1.413V2.6c0-1.034-.52-1.41-1.346-1.41h-.672V.249h7.282v.942h-.583c-.827 0-1.344.375-1.344 1.41v21.636h1.8c3.3 0 4.161-3.86 4.161-7.433v-.095h.827z"/><path data-name="Path 6" d="M92.154 25.333H79.827l.49-.941h.368c.825 0 1.342-.377 1.342-1.413V2.6c0-1.034-.517-1.41-1.342-1.41h-.674V.249h7.28v.942h-.58c-.83 0-1.348.375-1.348 1.41v21.636h1.805c3.3 0 4.16-3.828 4.16-7.466v-.094h.827z"/><path data-name="Path 7" d="M70.036 1.19h-.245c-1.175 0-1.782.223-2.2 2.289l-4.466 22.039h-1.376l-2.787-14.422h-.029l-2.846 14.422h-1.376l-4.375-22.6c-.278-1.445-.684-1.728-1.926-1.728h-.093V.25h6.639v.94h-.122c-.956 0-1.193.345-1.193 1a3.429 3.429 0 00.029.564l2.784 15.3h.062L58.319 7.99l-.947-5.078c-.237-1.257-.515-1.726-1.5-1.726h-.154V.25h6.546v.94h-.122c-1.222 0-1.468.421-1.469 1.284a4.488 4.488 0 00.092.786l2.784 14.611h.062l2.63-14.642a3.467 3.467 0 00.06-.6c0-1-.324-1.442-1.622-1.442h-.177V.25h5.536z"/><path data-name="Path 8" d="M80.406 25.333h-6.943v-.942h.183c1.267 0 1.651-.344 1.651-1.065a4.93 4.93 0 00-.091-.755l-.581-3.323h-4.159l-.583 3.323a4.45 4.45 0 00-.092.755c0 .776.3 1.065 1.56 1.065h.123v.942h-5.235v-.942h.274c1.072 0 1.683-.255 1.958-1.724L72.727 0h1.562l4.374 22.571c.262 1.362.948 1.82 1.529 1.82h.214zm-6.026-7.244L72.539 6.99h-.06l-1.836 11.1z"/><path data-name="Path 9" d="M191.45 8.934h-.827V8.84c0-4.044-1.492-7.492-3.241-7.492h-.736v21.6c0 1.039.52 1.443 1.349 1.443h.761v.942h-7.523v-.942h.7c.827 0 1.346-.408 1.346-1.443v-21.6h-.643c-1.75 0-3.242 3.228-3.242 7.492v.094h-.826V.249h12.879z"/><path data-name="Path 10" d="M177.501 25.333h-12.482v-.942h.643c.826 0 1.313-.408 1.313-1.444V2.632c0-1.036-.487-1.442-1.313-1.442h-.674V.249H177.5v8.624h-.827v-.1c0-5.109-1.514-7.429-4.282-7.429h-2.049v10.412h.521c1.557 0 2.294-1.537 2.294-4.765v-.1h.824v10.852h-.824v-.061c0-3.166-.7-4.8-2.294-4.8h-.521v11.355h1.926c2.734 0 4.4-2.731 4.4-7.4v-.092h.827z"/><path data-name="Path 11" d="M164.163 25.333h-12.48v-.942h.641c.827 0 1.314-.408 1.314-1.444V2.632c0-1.036-.487-1.442-1.314-1.442h-.672V.249h12.51v8.624h-.827v-.1c0-5.109-1.514-7.429-4.283-7.429h-2.049v10.412h.521c1.556 0 2.294-1.537 2.294-4.765v-.1h.825v10.852h-.825v-.061c0-3.166-.7-4.8-2.294-4.8h-.521v11.355h1.929c2.734 0 4.4-2.731 4.4-7.4v-.092h.827z"/><path data-name="Path 12" d="M135.99 8.934h-.827V8.84c0-4.044-1.492-7.492-3.242-7.492h-.736v21.6c0 1.039.518 1.443 1.348 1.443h.765v.942h-7.527v-.942h.706c.825 0 1.344-.408 1.344-1.443v-21.6h-.643c-1.75 0-3.242 3.228-3.242 7.492v.094h-.826V.249h12.879z"/><path data-name="Path 13" d="M123.081 19.248c0 4.439-2.624 6.27-5.691 6.27a6.459 6.459 0 01-4.311-1.5l-.582 1.318h-.642v-8.627h.824v.252c0 6.051 2.973 7.431 4.466 7.431 2.27 0 3.275-1.338 3.275-3.983 0-2.885-1.768-4.986-4.314-6.96-2.307-1.791-4.435-3.984-4.435-7.648 0-3.778 2.271-5.739 4.987-5.739a5.3 5.3 0 013.911 1.473l.612-1.223h.613v8.653h-.825v-.25c0-4.7-1.375-7.525-4.1-7.525-1.724 0-2.632 1.245-2.632 3.231 0 2.357 1.359 3.7 3.885 5.707 2.8 2.224 4.956 4.565 4.956 9.121"/><path data-name="Path 14" d="M151.467 21.912c0 2.106-.778 3.605-2.784 3.605s-2.855-1.524-3-4.639l-.213-4.672c-.114-2.47-1.034-3.134-2.417-3.134h-.886v9.874c0 1.037.4 1.443 1.224 1.443h.857v.942h-7.465v-.941h.7c.828 0 1.347-.406 1.347-1.443V2.631c0-1.036-.52-1.442-1.347-1.442h-.7v-.94h6.7c4.048 0 6.584 2.126 6.584 6.084 0 4.138-2.81 5.7-5.293 6.207v.063a4.389 4.389 0 014.008 4.138l.274 5.486c.055 1.089.185 1.412.673 1.412.612 0 .734-.471.734-2.1v-.911h1.004zM146.544 6.39c0-3.919-1.51-5.047-3.578-5.047h-.8v10.57h.919c2.159 0 3.457-1.5 3.457-5.518"/><path data-name="Path 15" d="M287.974 25.333h-12.328l.487-.941h.371c.824 0 1.345-.377 1.345-1.413V2.603c0-1.034-.521-1.413-1.345-1.413h-.674V.249h7.28v.942h-.581c-.826 0-1.344.379-1.344 1.413v21.633h1.8c3.3 0 4.159-3.828 4.159-7.433v-.095h.827z"/><path data-name="Path 16" d="M263.319 1.19h-.643c-.763 0-1.375.594-1.375 1.819v22.418h-1.195l-7.648-19.753h-.06v16.9c0 1.226.61 1.819 1.377 1.819h.612v.942h-5.171v-.945h.7c.765 0 1.376-.593 1.376-1.819V2.757c0-.878-.331-1.567-1.193-1.567h-.888V.25h4.712l6.209 16.147h.062V3.008c0-1.234-.612-1.819-1.377-1.819h-.643V.25h5.14z"/><path data-name="Path 17" d="M235.205 1.19h-1.284c-.765 0-1.222.658-1.222 1.819v16.712c0 3.328-1.085 5.8-4.59 5.8-3.727 0-5.9-2.343-5.9-5.8V2.631c0-1.036-.487-1.442-1.312-1.442h-.675V.25h7.158v.94h-.46c-.828 0-1.315.406-1.315 1.442V19.94c0 2.828 1.086 4.451 2.935 4.451 1.88 0 3.029-1.375 3.029-4.451V3.008c0-1.161-.43-1.819-1.194-1.819h-.7V.25h5.537z"/><path data-name="Path 18" d="M207.552 1.19h-.614c-.828 0-1.346.406-1.346 1.442v17.494c0 3.927-2.4 5.392-5.476 5.392-2.2 0-4.4-1.841-4.4-5.392 0-1.906 1.157-2.726 2.078-2.726a1.665 1.665 0 011.652 1.88 2.118 2.118 0 01-1.987 2.32 2.732 2.732 0 002.63 2.79c1.594 0 2.141-.9 2.141-3.605V2.631c0-1.036-.487-1.442-1.315-1.442h-.642V.25h7.279z"/><path data-name="Path 19" d="M276.226 25.333h-6.943v-.942h.184c1.267 0 1.651-.344 1.651-1.065a4.758 4.758 0 00-.092-.755l-.58-3.323h-4.161l-.579 3.323a4.461 4.461 0 00-.093.755c0 .776.3 1.065 1.56 1.065h.123v.942h-5.232v-.942h.274c1.07 0 1.685-.255 1.96-1.724L268.548 0h1.56l4.377 22.571c.263 1.362.946 1.82 1.528 1.82h.212zm-6.025-7.244l-1.835-11.1h-.065l-1.835 11.1z"/><path data-name="Path 20" d="M249.155 21.912c0 2.106-.779 3.605-2.784 3.605s-2.854-1.524-3-4.639l-.216-4.672c-.112-2.483-1.034-3.134-2.416-3.134h-.888v9.874c0 1.037.4 1.443 1.226 1.443h.857v.942h-7.466v-.941h.7c.826 0 1.345-.406 1.345-1.443V2.631c0-1.036-.52-1.442-1.345-1.442h-.7v-.94h6.7c4.047 0 6.577 2.126 6.577 6.084 0 4.138-2.808 5.7-5.293 6.207v.063a4.375 4.375 0 014.008 4.138l.276 5.486c.055 1.094.185 1.412.674 1.412.612 0 .733-.471.733-2.1v-.911h1.011zM244.23 6.39c0-3.919-1.51-5.047-3.58-5.047h-.8v10.57h.919c2.159 0 3.457-1.5 3.457-5.518"/><path data-name="Path 21" d="M220.281 12.73c0 7.123-2.277 12.788-6.453 12.788-4.079 0-6.362-5.664-6.362-12.788S209.65.063 213.823.063c4.125 0 6.453 5.536 6.453 12.667m-3.795 5.954V6.833c0-4.334-.938-5.643-2.659-5.643s-2.6 1.247-2.6 5.707v11.75c0 4.181.786 5.739 2.6 5.739 1.786 0 2.659-1.652 2.659-5.707"/></g><path data-name="Path 44" d="M46.129 55.854h10.05v8.425h1.25v-17.5h-1.25v7.925h-10.05v-7.925h-1.25v17.5h1.25zm29.5 8.425v-1.125h-9.95v-7.3h8.775v-1.125h-8.775v-6.825h9.825v-1.125H64.429v17.5zm15.95-5.625h-8.15l4.075-10.675zm2.15 5.625h1.35l-6.925-17.775h-1.25l-6.925 17.775h1.3l1.725-4.525h9zm16.95 0v-1.125h-8.925V46.779h-1.25v17.5zm8.55 0V47.904h6.2v-1.125h-13.65v1.125h6.2v16.375zm12.575-8.425h10.05v8.425h1.25v-17.5h-1.25v7.925h-10.05v-7.925h-1.25v17.5h1.25zm25.975 8.425v-7.825h7.475v-1.125h-7.475v-7.425h9.825v-1.125h-11.075v17.5zm28.05-8.775c0-5.3-3.075-9.025-7.325-9.025-4.3 0-7.4 3.775-7.4 9.075s3.075 9.025 7.35 9.025c4.25 0 7.375-3.775 7.375-9.075zm-1.25.05c0 4.575-2.5 7.925-6.1 7.925s-6.125-3.35-6.125-7.975c0-4.575 2.525-7.925 6.1-7.925 3.6 0 6.125 3.35 6.125 7.975zm8.475.575v-8.25h4.4c3.075 0 4.675 1.4 4.675 3.8 0 2.75-2.55 4.45-5.925 4.45zm0 1.1h2.625c1.8 0 2.7.6 3.975 2.25l3.85 4.8h1.625l-4.35-5.25a5.033 5.033 0 00-2.525-2.175c2.5-.55 5.125-2 5.125-5.275 0-3.025-2.05-4.8-5.85-4.8h-5.725v17.5h1.25zm29.075.375V46.779h-1.225v10.875c0 3.65-2.025 5.775-5.025 5.775-2.975 0-5.025-2.15-5.025-5.875V46.779h-1.225v10.8c0 4.375 2.425 6.95 6.225 6.95 3.825 0 6.275-2.575 6.275-6.925zm23.25 6.675h1.225l-.825-17.5h-1.55l-6.65 15.975-6.625-15.975h-1.55l-.875 17.5h1.225l.675-15.775 6.575 15.825h1.125l6.575-15.825z" fill="#fff"/></svg>