<svg id="Layer_1" data-name="Layer 1" xmlns="http://www.w3.org/2000/svg" viewBox="0 0 149.39 59.83"><defs><style>.cls-1{fill:#fff}.cls-2{fill:#b6a26b}</style></defs><path class="cls-1" d="M118.67 4.46l-.49.14c-.62.15-.8.7-1.13 2.27l-3.15 15h-.9l-2.44-11.78-2.23 11.78h-1.06L104 6.38c-.31-1.42-.57-1.65-1-1.78l-.5-.14V4h5.09v.46l-.39.08c-.83.15-.75 1-.52 2l2 9.73 1.5-8-.57-2.27c-.21-1-.29-1.3-.8-1.42l-.34-.08V4h5v.46l-.57.11c-.85.15-.72 1-.51 2l1.91 9.81 1.88-9.26c.36-1.91.19-2.37-.58-2.53l-.6-.13V4h3.64v.46zM123 21.88c-1.5 0-2-1-2.5-1-.29 0-.62.08-.88.93h-.31V15.9h.49c.31 3.27 1.45 5.31 3.18 5.31 1.16 0 2-1 2-2.86 0-4-5.8-5.86-5.8-10.22 0-2.4 1.49-4.23 3.68-4.23 1.42 0 1.73.93 2.33.93.34 0 .56-.26.7-.83h.31v5.88h-.5c-.31-2.91-1-5.31-2.86-5.31-1.29 0-1.6 1.23-1.6 2.07 0 3.84 5.81 5.23 5.81 10.53.01 2.73-1.74 4.71-4.05 4.71zm13.56-17.42l-.57.16c-.51.13-.69.36-.69 1.08v12c0 2.76-1.66 4.21-3.79 4.21a3.07 3.07 0 01-3-3.3 1.75 1.75 0 011.81-1.91 1.2 1.2 0 011.06 1.39c-.1 1.29-1.45 1.24-1.52 2 0 .46.59 1.11 1.42 1.11 1.28 0 1.45-1.39 1.45-3.12V5.68c0-.75-.29-.93-.81-1.06l-.64-.16V4h5.34v.46z" transform="translate(-65.97 -2.85)"/><path class="cls-2" d="M158.38 9.67h-.86v3.21h.82c1.16 0 1.81-.57 1.81-1.63s-.62-1.58-1.77-1.58zm-10.17 0h-.67v3.25h.63c1.18 0 1.84-.53 1.84-1.67s-.61-1.58-1.8-1.58z" transform="translate(-65.97 -2.85)"/><path class="cls-2" d="M140.88 2.85v20.56h38V2.85zM148.26 15h-.68v3.67h-2.67V7.6h3.47c2.62 0 4.22 1.2 4.22 3.61S150.87 15 148.26 15zm12.25 3.67l-2.3-3.8h-.67v3.8h-2.65V7.6h3.76c2.61 0 4.14 1.22 4.14 3.49a3.22 3.22 0 01-2 3.15l2.86 4.42zm9.22.21c-3.1 0-5.13-2.31-5.13-5.72s2-5.76 5.15-5.76 5.14 2.31 5.14 5.72-2.03 5.75-5.16 5.75z" transform="translate(-65.97 -2.85)"/><path class="cls-2" d="M169.74 9.54c-1.55 0-2.47 1.39-2.47 3.59s.92 3.59 2.47 3.59 2.46-1.39 2.46-3.59-.9-3.59-2.46-3.59z" transform="translate(-65.97 -2.85)"/><path class="cls-1" d="M71.57 45.19c-3.35 0-5.6-2.57-5.6-6.29s2.32-6.33 5.6-6.33a7.18 7.18 0 013.09.69l-.26.74a6.73 6.73 0 00-2.83-.67c-2.79 0-4.73 2.38-4.73 5.5s1.9 5.55 4.8 5.55a6.29 6.29 0 002.85-.73l.26.74a6.84 6.84 0 01-3.18.8zM82.15 45v-5l-4.58-7.24h1l4 6.45 4-6.45h1L83 40v5zM91 45V32.74h4.32c2.41 0 3.7 1.14 3.7 2.79 0 1.81-1.43 2.72-2.92 3.13 2 .37 3.36 1.26 3.36 3.13 0 2.11-1.74 3.25-4.06 3.25zm3.38-6.76c2.13 0 3.76-1 3.76-2.67 0-1.25-1-2.11-2.86-2.11h-3.35v4.78zm1.06 6c1.81 0 3.14-.94 3.14-2.51s-1.59-2.69-4.2-2.69h-2.45v5.2zm8.04.76V32.74h7.78v.79h-6.91v4.8h6.17v.78h-6.17v5.14h7v.8zm12.43 0H115V32.74h4c2.67 0 4.12 1.25 4.12 3.37 0 2.31-1.85 3.32-3.61 3.71a3.51 3.51 0 011.77 1.53l3.07 3.7h-1.14l-2.71-3.38a3.11 3.11 0 00-2.8-1.58h-1.85V45zm2.22-5.73c2.38 0 4.16-1.2 4.16-3.13 0-1.69-1.12-2.67-3.29-2.67h-3.09v5.8zm13.32 5.91A9.4 9.4 0 01127 44l.35-.78a8.44 8.44 0 004.17 1.17c2 0 3.34-1.06 3.34-2.48s-.8-2.06-3.36-2.9c-3-.9-3.9-1.83-3.9-3.4 0-1.82 1.62-3 3.85-3a8.25 8.25 0 013.72.86l-.31.75a7.7 7.7 0 00-3.48-.84c-1.73 0-2.9.93-2.9 2.2s.77 1.9 3.32 2.68c3 .92 3.92 1.92 3.92 3.61-.02 1.98-1.72 3.31-4.27 3.31zm7.98-.18V32.74h7.79v.79h-6.91v4.8h6.16v.78h-6.16v5.14h7v.8zm16.39.19c-3.36 0-5.61-2.57-5.61-6.29s2.33-6.33 5.61-6.33a7.25 7.25 0 013.09.69l-.27.77a6.66 6.66 0 00-2.83-.67c-2.78 0-4.72 2.38-4.72 5.5s1.9 5.55 4.79 5.55a6.29 6.29 0 002.85-.73l.27.74a6.84 6.84 0 01-3.18.77zm10.99.02c-2.67 0-4.38-1.81-4.38-4.89v-7.59h.86v7.58c0 2.62 1.45 4.12 3.54 4.12s3.53-1.49 3.53-4.06v-7.64h.86v7.61c.01 3.06-1.72 4.87-4.41 4.87zm9.86-.21h-.87V32.74h4c2.67 0 4.11 1.25 4.11 3.37 0 2.31-1.84 3.32-3.6 3.71a3.55 3.55 0 011.77 1.53l3.06 3.7H184l-2.71-3.38a3.09 3.09 0 00-2.79-1.58h-1.85V45zm2.22-5.73c2.37 0 4.16-1.2 4.16-3.13 0-1.69-1.12-2.67-3.29-2.67h-3.09v5.8zm9.68 5.73V32.74h.88V45zm8.68 0V33.52h-4.36v-.79h9.59v.79h-4.35V45zm12.63 0v-5l-4.59-7.24h1l4 6.45 4-6.45h1L210.77 40v5zM81.93 62.55v-7.77H87v.74h-4.26v2.68h3.8v.74h-3.8v2.88h4.31v.74zm10.64-3.4l-2.23 3.39h-.92l2.65-4-2.52-3.78h.94L92.58 58l2.1-3.2h.92l-2.52 3.76 2.67 4h-1zm5.97 3.4v-7.77h5.06v.74h-4.25v2.68h3.8v.74h-3.8v2.88h4.31v.74zm11.24.1c-2.14 0-3.59-1.58-3.59-4s1.49-4 3.6-4a4.65 4.65 0 012 .43l-.2.74a4 4 0 00-1.77-.42c-1.65 0-2.79 1.37-2.79 3.23s1.11 3.25 2.84 3.25a4 4 0 001.77-.44l.21.71a4.88 4.88 0 01-2.07.5zm7.69.01c-1.73 0-2.86-1.09-2.86-3.1v-4.78h.82v4.78c0 1.55.84 2.39 2 2.39s2-.85 2-2.36v-4.82h.81v4.79c.11 2.01-1.04 3.1-2.77 3.1zm8.15-.11v-7H123v-.74h6.16v.74h-2.67v7zm6.24 0v-7.77h.82v7.77zm6.6.11l-2.94-7.88h.89l2.47 6.88 2.46-6.88h.88l-2.93 7.88zm6.59-.11v-7.77h5.06v.74h-4.26v2.68h3.8v.74h-3.8v2.88h4.31v.74zm11.75 0v-7.77h5v.74h-4.22v3h3.23v.74h-3.23v3.34h-.82zm10.42.13c-1.94 0-3.33-1.62-3.33-4s1.39-4 3.34-4 3.33 1.62 3.33 4-1.41 4-3.34 4zm0-7.31c-1.48 0-2.49 1.35-2.49 3.28s1 3.31 2.51 3.31 2.49-1.35 2.49-3.28-1.03-3.31-2.51-3.31zm7.21 7.18h-.81v-7.77h2.62c1.78 0 2.71.79 2.71 2.16a2.44 2.44 0 01-2.2 2.34 2.34 2.34 0 011.13 1l1.81 2.27h-1l-1.59-2a1.84 1.84 0 00-1.66-.94h-1v3zm1.29-3.71c1.39 0 2.4-.68 2.4-1.79s-.65-1.55-1.93-1.55h-1.76v3.34zm9.28 3.82c-1.73 0-2.86-1.09-2.86-3.1v-4.78h.82v4.78c0 1.55.84 2.39 2 2.39s2.04-.85 2.04-2.36v-4.82h.81v4.79c.03 2.01-1.11 3.1-2.81 3.1zm13.22-6.86l-2.65 6.76h-.78l-2.64-6.76-.31 6.75h-.78l.39-7.77h1.09l2.64 6.78 2.65-6.78h1.1l.38 7.77h-.81z" transform="translate(-65.97 -2.85)"/></svg>