<svg id="Layer_1" data-name="Layer 1" xmlns="http://www.w3.org/2000/svg" viewBox="0 0 286.84 29.84"><defs><style>.cls-2{fill:#b6a26b}</style></defs><path d="M125.65 45.63v-8.45h5.51V38h-4.63v2.92h4.13v.8h-4.13v3.14h4.69v.8zm11.57-3.69l-2.43 3.69h-1l2.89-4.35-2.75-4.1h1l2.27 3.47 2.28-3.47h1l-2.74 4.09 2.9 4.36h-1zm6.5 3.69v-8.45h5.51V38h-4.63v2.92h4.13v.8h-4.13v3.14h4.69v.8zm12.28.11c-2.33 0-3.91-1.72-3.91-4.32s1.62-4.35 3.92-4.35a5.11 5.11 0 012.17.47l-.22.79a4.53 4.53 0 00-1.93-.46c-1.8 0-3 1.49-3 3.52s1.21 3.54 3.08 3.54a4.4 4.4 0 001.93-.48l.23.77a5 5 0 01-2.27.52zm8.33.01c-1.88 0-3.11-1.19-3.11-3.38v-5.19h.89v5.2c0 1.68.92 2.59 2.23 2.59s2.24-.91 2.24-2.56v-5.23h.88v5.2c0 2.18-1.25 3.37-3.13 3.37zm8.87-.12V38h-2.91v-.8H177v.8h-2.9v7.65zm6.8 0v-8.45h.9v8.45zm7.17.12L184 37.18h1l2.68 7.48 2.68-7.48h1l-3.19 8.57zm7.17-.12v-8.45h5.51V38h-4.63v2.92h4.13v.8h-4.13v3.14h4.68v.8zm12.79 0v-8.45h5.48V38H208v3.2h3.51v.8H208v3.64zm11.34.14c-2.11 0-3.62-1.76-3.62-4.35s1.5-4.39 3.63-4.39 3.62 1.76 3.62 4.36-1.53 4.38-3.63 4.38zm0-8c-1.61 0-2.72 1.47-2.72 3.57s1.13 3.6 2.73 3.6 2.72-1.47 2.72-3.57-1.12-3.55-2.73-3.55zm7.84 7.86h-.88v-8.45h2.87c1.93 0 2.94.85 2.94 2.35a2.66 2.66 0 01-2.39 2.55 2.48 2.48 0 011.23 1.07l2 2.48h-1.1l-1.72-2.24a2 2 0 00-1.82-1h-1.08v3.26zm1.42-4c1.5 0 2.61-.74 2.61-2s-.72-1.63-2.11-1.63h-1.92v3.63zm10.05 4.12c-1.88 0-3.11-1.19-3.11-3.38v-5.19h.9v5.2c0 1.68.91 2.59 2.23 2.59s2.23-.91 2.23-2.56v-5.23h.88v5.2c.01 2.18-1.24 3.37-3.13 3.37zm14.42-7.46l-2.89 7.35h-.85l-2.87-7.35-.32 7.34h-.86l.42-8.45H246l2.89 7.37 2.88-7.37H253l.41 8.45h-.88zm-120.79-8.48c-3.68 0-6.14-2.81-6.14-6.88s2.54-6.93 6.14-6.93a7.93 7.93 0 013.38.75l-.29.85a7.13 7.13 0 00-3.09-.73c-3 0-5.18 2.6-5.18 6s2.08 6.13 5.25 6.13a6.94 6.94 0 003.12-.79l.29.81a7.59 7.59 0 01-3.48.79zm11.69-.17V24.1l-5-7.93h1.11l4.41 7.06 4.4-7.06h1.08l-5 7.93v5.54zm9.84 0V16.17h4.73c2.63 0 4 1.25 4 3.06 0 2-1.56 3-3.2 3.42 2.18.41 3.68 1.39 3.68 3.43 0 2.3-1.91 3.56-4.45 3.56zm3.69-7.39c2.32 0 4.11-1.06 4.11-2.93 0-1.36-1.06-2.3-3.13-2.3h-3.72v5.23zm1.15 6.54c2 0 3.45-1 3.45-2.75s-1.75-2.94-4.6-2.94h-2.74v5.69zm8.86.85V16.17h8.53V17h-7.56v5.25h6.75v.87h-6.75v5.62h7.65v.87h-8.62zm13.73 0h-1V16.17h4.4c2.93 0 4.51 1.36 4.51 3.7 0 2.51-2 3.63-3.95 4.05a3.89 3.89 0 011.94 1.68l3.35 4h-1.25l-3-3.7c-1-1.27-1.68-1.73-3.06-1.73h-2zm2.42-6.28c2.6 0 4.56-1.3 4.56-3.42 0-1.85-1.23-2.92-3.59-2.92h-3.39v6.34zm14.69 6.43a10.28 10.28 0 01-4.89-1.27l.39-.85a9.21 9.21 0 004.56 1.27c2.17 0 3.65-1.15 3.65-2.71s-.86-2.25-3.67-3.17c-3.23-1-4.27-2-4.27-3.71 0-2 1.77-3.33 4.21-3.33a9.18 9.18 0 014.09.94l-.35.83a8.4 8.4 0 00-3.81-.92c-1.88 0-3.17 1-3.17 2.4s.85 2.08 3.64 2.95c3.27 1 4.29 2.1 4.29 3.94-.02 2.19-1.84 3.63-4.67 3.63zm8.84-.15V16.17h8.53V17h-7.56v5.25H214v.87h-6.75v5.62h7.65v.87h-8.62zm18.06.17c-3.68 0-6.14-2.81-6.14-6.88s2.54-6.93 6.14-6.93a7.93 7.93 0 013.38.75l-.29.85a7.13 7.13 0 00-3.09-.73c-3 0-5.18 2.6-5.18 6s2.08 6.13 5.25 6.13a6.94 6.94 0 003.12-.79l.29.81a7.59 7.59 0 01-3.48.79zm12.15.02c-2.93 0-4.79-2-4.79-5.35v-8.31h.94v8.29c0 2.87 1.58 4.52 3.87 4.52s3.86-1.63 3.86-4.44v-8.37h.94v8.33c0 3.35-1.88 5.33-4.82 5.33zm10.89-.19h-1V16.17h4.41c2.92 0 4.5 1.36 4.5 3.7 0 2.51-2 3.63-4 4.05a3.89 3.89 0 011.94 1.68l3.35 4h-1.25l-3-3.7c-1-1.27-1.67-1.73-3.06-1.73h-2v5.43zm2.43-6.28c2.59 0 4.56-1.3 4.56-3.42 0-1.85-1.23-2.92-3.6-2.92h-3.39v6.34zm10.7 6.28V16.17h1v13.47zm9.6 0V17h-4.77v-.87h10.51V17h-4.77v12.6zm13.93 0V24.1l-5-7.93h1.12l4.4 7.06 4.4-7.06h1.08l-5 7.93v5.54zM26.59 18.57l-.7.19c-.89.22-1.16 1-1.64 3.27l-4.53 21.55h-1.34l-3.51-17-3.21 17h-1.52L5.42 21.32C5 19.28 4.6 19 3.93 18.76l-.7-.19v-.67h7.32v.67l-.56.11c-1.19.23-1.08 1.38-.74 2.9l2.83 14 2.18-11.48-.71-3.39c-.29-1.41-.41-1.86-1.15-2l-.49-.11v-.7h7.18v.67l-.82.15c-1.22.22-1 1.41-.74 2.86l2.76 14.11L23 22.36c.52-2.75.26-3.42-.85-3.64l-.78-.15v-.67h5.23v.67zm6.25 25.08c-2.16 0-2.9-1.49-3.61-1.49-.4 0-.89.12-1.26 1.34h-.45V35h.71c.45 4.72 2.08 7.66 4.57 7.66 1.67 0 2.9-1.49 2.9-4.13 0-5.79-8.36-8.43-8.36-14.71 0-3.46 2.16-6.1 5.31-6.1 2.05 0 2.49 1.34 3.35 1.34.48 0 .81-.37 1-1.19h.45v8.47h-.71c-.45-4.2-1.45-7.65-4.12-7.65-1.86 0-2.31 1.79-2.31 3 0 5.54 8.36 7.54 8.36 15.16 0 3.94-2.52 6.8-5.83 6.8zm19.51-25.08l-.81.23c-.75.18-1 .51-1 1.56V37.6c0 4-2.37 6-5.46 6a4.4 4.4 0 01-4.38-4.75 2.51 2.51 0 012.6-2.75 1.71 1.71 0 011.52 2c-.15 1.86-2.08 1.79-2.19 2.94 0 .67.85 1.6 2 1.6 1.86 0 2.08-2 2.08-4.5V20.32c0-1.08-.41-1.34-1.15-1.52l-.93-.23v-.67h7.69v.67z" transform="translate(-3.23 -16)" fill="#fff"/><path class="cls-2" d="M83.77 26.06h-1.24v4.64h1.19c1.67 0 2.61-.83 2.61-2.36s-.9-2.28-2.56-2.28zm-14.64 0h-1v4.69h.9c1.71 0 2.65-.76 2.65-2.41s-.84-2.28-2.55-2.28z" transform="translate(-3.23 -16)"/><path class="cls-2" d="M58.57 16.25v29.59h54.7V16.25zM69.2 33.73h-1V39h-3.84V23.09h5c3.77 0 6.09 1.73 6.09 5.19S73 33.73 69.2 33.73zM86.84 39l-3.32-5.47h-1V39h-3.79V23.09h5.41c3.76 0 6 1.75 6 5a4.62 4.62 0 01-2.92 4.52L91.3 39zm13.26.3c-4.45 0-7.37-3.32-7.37-8.24s2.92-8.28 7.42-8.28 7.39 3.32 7.39 8.23-2.92 8.3-7.44 8.3z" transform="translate(-3.23 -16)"/><path class="cls-2" d="M100.12 25.88c-2.22 0-3.55 2-3.55 5.17s1.33 5.16 3.55 5.16 3.56-2 3.56-5.16-1.31-5.17-3.56-5.17z" transform="translate(-3.23 -16)"/></svg>